<mxfile host="app.diagrams.net" modified="2024-04-26T02:24:53.317Z" agent="Mozilla/5.0 (Windows NT 10.0; Win64; x64) AppleWebKit/537.36 (KHTML, like Gecko) Chrome/123.0.0.0 Safari/537.36" etag="0GWVwIcW0ySMuma7hJIr" version="24.2.5" type="github">
  <diagram name="第 1 页" id="0PLpO4RYV99z5YLLDs7X">
    <mxGraphModel dx="1050" dy="530" grid="0" gridSize="10" guides="1" tooltips="1" connect="1" arrows="1" fold="1" page="1" pageScale="1" pageWidth="827" pageHeight="1169" math="0" shadow="0">
      <root>
        <mxCell id="0" />
        <mxCell id="1" parent="0" />
        <mxCell id="qlvhVwOaRwVuwZg9zW7u-4" style="edgeStyle=orthogonalEdgeStyle;rounded=0;orthogonalLoop=1;jettySize=auto;html=1;exitX=0.5;exitY=1;exitDx=0;exitDy=0;" edge="1" parent="1" source="qlvhVwOaRwVuwZg9zW7u-2">
          <mxGeometry relative="1" as="geometry">
            <mxPoint x="110" y="119.60000610351562" as="targetPoint" />
          </mxGeometry>
        </mxCell>
        <mxCell id="qlvhVwOaRwVuwZg9zW7u-2" value="&lt;span style=&quot;background-color: initial;&quot;&gt;system_runcase&lt;/span&gt;&lt;div&gt;&lt;span style=&quot;background-color: initial;&quot;&gt;start&lt;/span&gt;&lt;/div&gt;" style="ellipse;whiteSpace=wrap;html=1;" vertex="1" parent="1">
          <mxGeometry x="60" y="20" width="100" height="60" as="geometry" />
        </mxCell>
        <mxCell id="qlvhVwOaRwVuwZg9zW7u-14" value="" style="edgeStyle=orthogonalEdgeStyle;rounded=0;orthogonalLoop=1;jettySize=auto;html=1;" edge="1" parent="1" source="qlvhVwOaRwVuwZg9zW7u-3" target="qlvhVwOaRwVuwZg9zW7u-5">
          <mxGeometry relative="1" as="geometry" />
        </mxCell>
        <mxCell id="qlvhVwOaRwVuwZg9zW7u-3" value="test_flow:low_fps=&amp;gt;low_fps&lt;span style=&quot;background-color: initial;&quot;&gt;&amp;nbsp;&lt;/span&gt;&lt;div&gt;&lt;span style=&quot;background-color: initial;&quot;&gt;get result_l2l and str_time_l2l&lt;/span&gt;&lt;/div&gt;" style="rounded=1;whiteSpace=wrap;html=1;" vertex="1" parent="1">
          <mxGeometry x="25.5" y="119" width="169.5" height="60" as="geometry" />
        </mxCell>
        <mxCell id="qlvhVwOaRwVuwZg9zW7u-13" value="" style="edgeStyle=orthogonalEdgeStyle;rounded=0;orthogonalLoop=1;jettySize=auto;html=1;" edge="1" parent="1" source="qlvhVwOaRwVuwZg9zW7u-5" target="qlvhVwOaRwVuwZg9zW7u-8">
          <mxGeometry relative="1" as="geometry" />
        </mxCell>
        <mxCell id="qlvhVwOaRwVuwZg9zW7u-5" value="test_flow:high_fps=&amp;gt;low_fps&lt;div&gt;&lt;span style=&quot;background-color: initial;&quot;&gt;get result_h2l&amp;nbsp;&lt;/span&gt;&lt;span style=&quot;background-color: initial;&quot;&gt;and str_time_h2l&lt;/span&gt;&lt;/div&gt;" style="rounded=1;whiteSpace=wrap;html=1;" vertex="1" parent="1">
          <mxGeometry x="25.5" y="228" width="169" height="60" as="geometry" />
        </mxCell>
        <mxCell id="qlvhVwOaRwVuwZg9zW7u-12" value="" style="edgeStyle=orthogonalEdgeStyle;rounded=0;orthogonalLoop=1;jettySize=auto;html=1;" edge="1" parent="1" source="qlvhVwOaRwVuwZg9zW7u-8" target="qlvhVwOaRwVuwZg9zW7u-10">
          <mxGeometry relative="1" as="geometry" />
        </mxCell>
        <mxCell id="qlvhVwOaRwVuwZg9zW7u-21" style="edgeStyle=orthogonalEdgeStyle;rounded=0;orthogonalLoop=1;jettySize=auto;html=1;entryX=0.5;entryY=0;entryDx=0;entryDy=0;" edge="1" parent="1" source="qlvhVwOaRwVuwZg9zW7u-8" target="qlvhVwOaRwVuwZg9zW7u-20">
          <mxGeometry relative="1" as="geometry" />
        </mxCell>
        <mxCell id="qlvhVwOaRwVuwZg9zW7u-8" value="if result_l2l ==0&amp;nbsp;&lt;div&gt;and result_h2l == 0&lt;/div&gt;" style="rhombus;whiteSpace=wrap;html=1;rounded=0;" vertex="1" parent="1">
          <mxGeometry x="25" y="331" width="169.5" height="73" as="geometry" />
        </mxCell>
        <mxCell id="qlvhVwOaRwVuwZg9zW7u-19" value="" style="edgeStyle=orthogonalEdgeStyle;rounded=0;orthogonalLoop=1;jettySize=auto;html=1;" edge="1" parent="1" source="qlvhVwOaRwVuwZg9zW7u-10" target="qlvhVwOaRwVuwZg9zW7u-18">
          <mxGeometry relative="1" as="geometry" />
        </mxCell>
        <mxCell id="qlvhVwOaRwVuwZg9zW7u-10" value="&lt;div&gt;&lt;span style=&quot;background-color: initial;&quot;&gt;save str_time_h2l&amp;nbsp;&lt;/span&gt;&lt;span style=&quot;background-color: initial;&quot;&gt;and str_time_h2l to file&lt;/span&gt;&lt;/div&gt;" style="rounded=1;whiteSpace=wrap;html=1;" vertex="1" parent="1">
          <mxGeometry x="25" y="441" width="169" height="60" as="geometry" />
        </mxCell>
        <mxCell id="qlvhVwOaRwVuwZg9zW7u-23" value="" style="edgeStyle=orthogonalEdgeStyle;rounded=0;orthogonalLoop=1;jettySize=auto;html=1;" edge="1" parent="1" source="qlvhVwOaRwVuwZg9zW7u-18" target="qlvhVwOaRwVuwZg9zW7u-22">
          <mxGeometry relative="1" as="geometry" />
        </mxCell>
        <mxCell id="qlvhVwOaRwVuwZg9zW7u-18" value="&lt;div&gt;test ok&lt;/div&gt;" style="rounded=1;whiteSpace=wrap;html=1;" vertex="1" parent="1">
          <mxGeometry x="25.5" y="551" width="169" height="60" as="geometry" />
        </mxCell>
        <mxCell id="qlvhVwOaRwVuwZg9zW7u-25" style="edgeStyle=orthogonalEdgeStyle;rounded=0;orthogonalLoop=1;jettySize=auto;html=1;entryX=0.5;entryY=0;entryDx=0;entryDy=0;" edge="1" parent="1" source="qlvhVwOaRwVuwZg9zW7u-20" target="qlvhVwOaRwVuwZg9zW7u-22">
          <mxGeometry relative="1" as="geometry">
            <Array as="points">
              <mxPoint x="306" y="644" />
              <mxPoint x="110" y="644" />
            </Array>
          </mxGeometry>
        </mxCell>
        <mxCell id="qlvhVwOaRwVuwZg9zW7u-20" value="&lt;div&gt;test fail&lt;/div&gt;" style="rounded=1;whiteSpace=wrap;html=1;" vertex="1" parent="1">
          <mxGeometry x="221" y="551" width="169" height="60" as="geometry" />
        </mxCell>
        <mxCell id="qlvhVwOaRwVuwZg9zW7u-22" value="system_runcase&lt;div&gt;end&lt;/div&gt;" style="ellipse;whiteSpace=wrap;html=1;" vertex="1" parent="1">
          <mxGeometry x="59.5" y="674" width="100" height="60" as="geometry" />
        </mxCell>
        <mxCell id="qlvhVwOaRwVuwZg9zW7u-26" value="N" style="text;html=1;align=center;verticalAlign=middle;resizable=0;points=[];autosize=1;strokeColor=none;fillColor=none;" vertex="1" parent="1">
          <mxGeometry x="188" y="337" width="27" height="26" as="geometry" />
        </mxCell>
        <mxCell id="qlvhVwOaRwVuwZg9zW7u-27" value="Y" style="text;html=1;align=center;verticalAlign=middle;resizable=0;points=[];autosize=1;strokeColor=none;fillColor=none;" vertex="1" parent="1">
          <mxGeometry x="113" y="399" width="26" height="26" as="geometry" />
        </mxCell>
      </root>
    </mxGraphModel>
  </diagram>
</mxfile>
